<svg xmlns="http://www.w3.org/2000/svg" width="310" height="142" fill="none"><rect width="22.211" height="99.249" fill="#FFE59C" rx="11.105" transform="matrix(.79066 .61225 -.5976 .8018 175.418 3.506)"/><rect width="22.054" height="99.936" fill="#FFE59C" rx="11.027" transform="matrix(1 -.00292 .0028 1 143.832 .064)"/><rect width="22.198" height="99.306" fill="#FFE59C" rx="11.099" transform="matrix(.80976 -.58676 .57206 .82021 117.607 15.786)"/><rect width="22.437" height="98.239" fill="#FFE59C" rx="11.218" transform="matrix(.31244 -.94994 .94628 .32336 105.015 44.773)"/><rect width="22.438" height="98.235" fill="#FFE59C" rx="11.219" transform="matrix(-.30979 -.9508 .9472 -.32063 111.951 76.415)"/><path fill="#AAB1FF" d="M55.8 100H2.7V80.2L55.8 6.4H81v73.8h21.6V100H81v32.4H55.8V100ZM24.3 80.2h31.5v-45l-31.5 45ZM254.2 100h53.1V80.2L254.2 6.4H229v73.8h-21.6V100H229v32.4h25.2V100Zm31.5-19.8h-31.5v-45l31.5 45Z"/></svg>